<svg xmlns="http://www.w3.org/2000/svg" viewBox="0 0 500 500"><title>diagnostico rapido</title><g id="Capa_2" data-name="Capa 2"><g id="Iconos_2" data-name="Iconos 2"><g id="fondo"><g id="fondo-2" data-name="fondo"><circle cx="250" cy="250" r="250" style="fill:#383b70"/></g><g id="fondo-3" data-name="fondo"><circle cx="274" cy="281.35" r="203" style="fill:#fff"/></g></g><g id="diagnostico_rapido" data-name="diagnostico rapido"><g id="fondo-4" data-name="fondo"><ellipse cx="250" cy="407.85" rx="87" ry="15.5" style="fill:#383b70"/></g><path d="M299.4,152.7H152.17a5.18,5.18,0,0,0-5.17,5.17v199a5.18,5.18,0,0,0,5.17,5.17H299.4a5.19,5.19,0,0,0,5.18-5.17v-199A5.19,5.19,0,0,0,299.4,152.7Z" style="fill:#bcbcbc"/><path d="M156.72,159.07a3.61,3.61,0,0,0-3.55,3.66V352a3.61,3.61,0,0,0,3.55,3.66H294.86a3.61,3.61,0,0,0,3.55-3.66V162.73a3.61,3.61,0,0,0-3.55-3.66Z" style="fill:#fff"/><path d="M163.91,167.82a2.57,2.57,0,0,0-2.39,2.7v26a2.57,2.57,0,0,0,2.39,2.7H287.67a2.56,2.56,0,0,0,2.38-2.7v-26a2.56,2.56,0,0,0-2.38-2.7Z" style="fill:#e6e6e6"/><path d="M163.91,211.89a2.43,2.43,0,0,0-2.39,2.46V270a2.43,2.43,0,0,0,2.39,2.46H287.67a2.42,2.42,0,0,0,2.38-2.46V214.35a2.42,2.42,0,0,0-2.38-2.46Z" style="fill:#e6e6e6"/><rect x="176.84" y="171.5" width="97.89" height="5.57" style="fill:#fff"/><rect x="177.04" y="183.24" width="97.89" height="2.59" style="fill:#fff"/><rect x="177.04" y="187.82" width="97.89" height="2.59" style="fill:#fff"/><rect x="177.04" y="192.39" width="97.89" height="2.59" style="fill:#fff"/><path d="M235,272.58h45.05a1.45,1.45,0,0,0,1-2.48l-28.83-28.83a1.44,1.44,0,0,0-2.05,0L243,248.44a3,3,0,0,1-4.3,0h0L216.27,226a1.46,1.46,0,0,0-2.05,0L170.3,269.9a1.46,1.46,0,0,0,1,2.48h63.74Z" style="fill:#fff"/><circle cx="181.42" cy="225.02" r="5.57" style="fill:#fff"/><path d="M163.91,285.51a2.43,2.43,0,0,0-2.39,2.45v55.68a2.43,2.43,0,0,0,2.39,2.45H287.67a2.42,2.42,0,0,0,2.38-2.45V288a2.42,2.42,0,0,0-2.38-2.45Z" style="fill:#e6e6e6"/><path d="M235,346.19h45.05a1.44,1.44,0,0,0,1-2.47l-28.83-28.84a1.46,1.46,0,0,0-2.05,0L243,322.05a3,3,0,0,1-4.3,0h0L216.27,299.6a1.44,1.44,0,0,0-2.05,0L170.3,343.52a1.45,1.45,0,0,0,1,2.47h63.74Z" style="fill:#fff"/><circle cx="181.42" cy="298.64" r="5.57" style="fill:#fff"/><path d="M203.9,198.46a3.59,3.59,0,0,0-3.58,3.58V401a3.6,3.6,0,0,0,3.58,3.58H351.13a3.6,3.6,0,0,0,3.59-3.58V202a3.6,3.6,0,0,0-3.59-3.58Z" style="fill:#bcbcbc"/><path d="M208.25,203a3.62,3.62,0,0,0-3.55,3.67V395.94a3.62,3.62,0,0,0,3.55,3.67H346.39a3.62,3.62,0,0,0,3.55-3.67V206.7a3.62,3.62,0,0,0-3.55-3.67Z" style="fill:#fff"/><path d="M229.87,230.56a1.59,1.59,0,0,0-1.59,1.59v7.31a1.59,1.59,0,0,0,1.59,1.59h93.91a1.59,1.59,0,0,0,1.59-1.59v-7.31a1.59,1.59,0,0,0-1.59-1.59Z" style="fill:#fc0254"/><path d="M229.27,254.74a.4.4,0,0,0-.4.4V258a.4.4,0,0,0,.4.4h95.5a.4.4,0,0,0,.4-.4v-2.85a.4.4,0,0,0-.4-.4Z" style="fill:#ccc"/><path d="M229.27,264a.4.4,0,0,0-.4.4v2.85a.4.4,0,0,0,.4.4h95.5a.4.4,0,0,0,.4-.4v-2.85a.4.4,0,0,0-.4-.4Z" style="fill:#ccc"/><path d="M229.27,273.28a.4.4,0,0,0-.4.4v2.85a.4.4,0,0,0,.4.4h95.5a.4.4,0,0,0,.4-.4v-2.85a.4.4,0,0,0-.4-.4Z" style="fill:#ccc"/><path d="M229.07,291.79a.4.4,0,0,0-.4.4V295a.4.4,0,0,0,.4.4h95.5a.4.4,0,0,0,.4-.4v-2.85a.4.4,0,0,0-.4-.4Z" style="fill:#ccc"/><path d="M229.07,301.06a.4.4,0,0,0-.4.4v2.85a.4.4,0,0,0,.4.4h95.5a.4.4,0,0,0,.4-.4v-2.85a.4.4,0,0,0-.4-.4Z" style="fill:#ccc"/><path d="M229.07,310.33a.4.4,0,0,0-.4.4v2.85a.4.4,0,0,0,.4.4h95.5a.4.4,0,0,0,.4-.4v-2.85a.4.4,0,0,0-.4-.4Z" style="fill:#ccc"/><path d="M229.07,319.65a.4.4,0,0,0-.4.4v2.85a.4.4,0,0,0,.4.4h95.5a.4.4,0,0,0,.4-.4v-2.85a.4.4,0,0,0-.4-.4Z" style="fill:#ccc"/><path d="M229.07,328.92a.4.4,0,0,0-.4.4v2.85a.4.4,0,0,0,.4.4h95.5a.4.4,0,0,0,.4-.4v-2.85a.4.4,0,0,0-.4-.4Z" style="fill:#ccc"/><path d="M229.07,338.19a.4.4,0,0,0-.4.4v2.85a.4.4,0,0,0,.4.4h95.5a.4.4,0,0,0,.4-.4v-2.85a.4.4,0,0,0-.4-.4Z" style="fill:#ccc"/><path d="M229.07,347.5a.4.4,0,0,0-.4.4v2.85a.4.4,0,0,0,.4.4h95.5a.4.4,0,0,0,.4-.4V347.9a.4.4,0,0,0-.4-.4Z" style="fill:#ccc"/><path d="M229.07,356.77a.4.4,0,0,0-.4.4V360a.4.4,0,0,0,.4.4h95.5a.4.4,0,0,0,.4-.4v-2.85a.4.4,0,0,0-.4-.4Z" style="fill:#ccc"/><path d="M229.07,366a.4.4,0,0,0-.4.4v2.85a.4.4,0,0,0,.4.4h95.5a.4.4,0,0,0,.4-.4v-2.85a.4.4,0,0,0-.4-.4Z" style="fill:#ccc"/><circle cx="347.95" cy="392.25" r="29.05" style="fill:#fc0254"/><polygon points="345.18 404.51 336.49 393.33 341.55 389.4 345.66 394.69 359.57 380.01 364.22 384.42 345.18 404.51" style="fill:#fff"/></g></g></g></svg>