<svg xmlns="http://www.w3.org/2000/svg" viewBox="0 0 500 500"><title>gratis</title><g id="Capa_2" data-name="Capa 2"><g id="Iconos_2" data-name="Iconos 2"><g id="fondo"><g id="fondo-2" data-name="fondo"><circle cx="250" cy="250" r="250" style="fill:#383b70"/></g><g id="fondo-3" data-name="fondo"><circle cx="274" cy="281.35" r="203" style="fill:#fff"/></g></g><g id="gratis"><ellipse cx="197.63" cy="409.13" rx="90.63" ry="6.22" style="fill:#e6e6e6"/><path d="M233.77,291.22c.89-5,5.49-7.94,10.08-9.11,5.24-1.34,10.83-1.18,16.16-.57,10.74,1.22,21.28,4.51,32.18,4A54.24,54.24,0,0,0,318.83,277a52.53,52.53,0,0,0,18.7-21A54.34,54.34,0,0,0,343,228.23c-.09-1.19-.23-2.37-.39-3.55-.12-.85-1.41-.49-1.29.35a52.5,52.5,0,0,1-3.87,28,51.31,51.31,0,0,1-17.66,21.67,53.08,53.08,0,0,1-26.25,9.4c-10.76.78-21.22-2.31-31.79-3.71a53.45,53.45,0,0,0-16.12-.05c-4.72.83-9.57,2.94-12,7.31a10.35,10.35,0,0,0-1.14,3.18c-.15.84,1.14,1.2,1.29.36Z" style="fill:#3f3d56"/><circle cx="337.58" cy="171.89" r="55.53" style="fill:#fc0254"/><circle cx="316.7" cy="160.78" r="14.22" style="fill:#fff"/><path d="M321.15,189.21a8.47,8.47,0,0,0,8.43,8h23.11a8.47,8.47,0,0,0,8.43-8Z" style="fill:#fff"/><circle cx="311.37" cy="165.44" r="7.55" style="fill:#3f3d56"/><circle cx="314.03" cy="162.33" r="1.78" style="fill:#fff"/><circle cx="362.9" cy="161" r="14.22" style="fill:#fff"/><circle cx="357.57" cy="165.44" r="7.55" style="fill:#3f3d56"/><circle cx="360.24" cy="162.33" r="1.78" style="fill:#fff"/><circle cx="338.47" cy="176.77" r="5.33" style="fill:#3f3d56"/><rect x="336.69" y="224.31" width="9.77" height="7.55" style="fill:#fc0254"/><path d="M206.19,372.75s6.27,18.37,3.58,25.09l8.07,7.17,4.93-6.28s-5.38-5.37-4.93-9.4.89-18.37.89-18.37Z" style="fill:#ffb9b9"/><path d="M236.2,408.59l-1,.6H207.36a1.47,1.47,0,0,1-.72-1.5c.13-.66.46-2,.87-3.57,1-3.68,2.41-8.5,2.72-8h0c.44.8,1.33,4.39,3.58,3.94s5.82-1.35,5.82-1.35-1.28-2.87,0-4a1.69,1.69,0,0,1,.95-.45c2.69-.44,2.69,3.59,2.69,3.59l9.85,5.37a16.73,16.73,0,0,1,2.48.91C237.55,405.06,239.53,406.66,236.2,408.59Z" style="fill:#2f2e41"/><path d="M188.27,366l-11.65,13.89-3.13,7.17,4,3.13,3.58-1.34s3.14-8.06,6.28-9.41,10.75-10.3,10.75-10.3Z" style="fill:#ffb9b9"/><path d="M212.69,355.38l-5.94,11-4.26,7.88a6.86,6.86,0,0,1-5.13.32,19.44,19.44,0,0,1-2.67-.89A51.8,51.8,0,0,1,184,367.18l10.23-12.78,3.35-4.17.79-1,3.82,1.64,6.74,2.88Z" style="fill:#2f2e41"/><path d="M186.18,260.29l-4.75,19.47,4.88,25s.13,10.21,4.6,9.43-.21-11.07-.21-11.07l-2.19-20.47,7-20.23a3.72,3.72,0,0,0-1.79-4.4h0C190.94,256.3,187,257.5,186.18,260.29Z" style="fill:#ffb9b9"/><path d="M202.83,243.51l-4,12.55-7.62-4s3.14-9,3.14-10.3S202.83,243.51,202.83,243.51Z" style="fill:#ffb9b9"/><circle cx="199.69" cy="239.03" r="9.41" style="fill:#ffb9b9"/><path d="M202.16,259l-1.79-1.79-.45-2.24s-5.82-7.62-10.75-4.93c-1.54.84-2.69,2.77-3.54,5a24.43,24.43,0,0,0,.57,18.2l7.9,18.43L212,289.88l-3.13-11.65s3.13-7.17-2.69-12.09Z" style="fill:#fc0254"/><path d="M212.69,355.38l-5.94,11-4.26,7.88a6.86,6.86,0,0,1-5.13.32c-.34-2.27,1.69-14.25.1-24l.07-.35.79-1,3.82,1.64,6.74,2.88Z" style="opacity:0.30000001192092896;isolation:isolate"/><path d="M212.69,288.76S201,281.59,193,290.55l.44,2.69s-6.72,7.61-2.68,23.74S201,375.22,201,375.22s14.78.89,21.5-4c0,0-2.24-55.54-9.85-60.92Z" style="fill:#2f2e41"/><path d="M188.4,263.81,201,279.35l22.85,11.2s8.2,6.07,10.29,2-9-6.52-9-6.52l-17.64-10.63-11.88-17.8a3.71,3.71,0,0,0-4.59-1.23h0C188.1,257.59,186.67,261.46,188.4,263.81Z" style="fill:#ffb9b9"/><path d="M180,387.9s2.75-3.46,4.39-1.28-1.93,4-1.93,4l-.21,11.22s1.95,8.58-3.32,5.27-5.47-3.71-6.51-5.7-3.17-10-5-12.54-3.54-7.75-1.35-8.39,12.42-2.91,11.91-2.15-3.27,3.2-1.84,5S180,387.9,180,387.9Z" style="fill:#2f2e41"/><path d="M204.62,231v0a13,13,0,1,0-13,13c.3,0,1.5,2.26,1.79,2.24C193.44,239.34,197.88,231.46,204.62,231Z" style="fill:#2f2e41"/><circle cx="177.74" cy="221.11" r="8.51" style="fill:#2f2e41"/><path d="M177.35,208.22a8.5,8.5,0,0,1,2.43,16.66,8.51,8.51,0,1,0-2.43-16.66Z" style="fill:#2f2e41"/><path d="M197.46,228.28h6.81A5.72,5.72,0,0,1,210,234v2.33H197.46v-8.06Z" style="fill:#2f2e41"/></g></g></g></svg>