<svg id="Capa_1" data-name="Capa 1" xmlns="http://www.w3.org/2000/svg" viewBox="0 0 4017 785"><title>logo</title><path d="M297.7,585.49l-86.62,96.37V887.58H40V119.91H211.08V442.57L491.51,119.91H716.73L417.88,452.31,717.81,887.58H504.51Z" transform="translate(-40 -119.91)" style="fill:#fc0254"/><path d="M812,887.58V119.91h486.17V281.24H983.08V427.41h285.85v150.5H983.08V725.17h316.17V887.58Z" transform="translate(-40 -119.91)" style="fill:#fc0254"/><path d="M1443.24,887.58V119.91h486.17V281.24H1614.32V427.41h285.85v150.5H1614.32V725.17h316.17V887.58Z" transform="translate(-40 -119.91)" style="fill:#fc0254"/><path d="M2245.56,611.48v276.1H2074.49V119.91h289.09c155.92,0,263.11,102.86,263.11,245.78,0,145.09-107.19,245.79-263.11,245.79Zm100.7-147.26c65,0,109.36-37.89,109.36-97.44,0-61.72-44.39-98.54-109.36-98.54h-99.61v196Z" transform="translate(-40 -119.91)" style="fill:#fc0254"/><path d="M2736,610.4V119.91h171.08V596.32c0,93.12,52,139.68,133.17,139.68s133.18-46.56,133.18-139.68V119.91h171.08V610.4c0,192.73-135.34,294.51-304.26,294.51S2736,803.13,2736,610.4Z" transform="translate(-40 -119.91)" style="fill:#fff"/><path d="M3675.87,611.48v276.1H3504.79V119.91h289.1c155.92,0,263.11,102.86,263.11,245.78,0,145.09-107.19,245.79-263.11,245.79Zm100.7-147.26c65,0,109.35-37.89,109.35-97.44,0-61.72-44.39-98.54-109.35-98.54H3677v196Z" transform="translate(-40 -119.91)" style="fill:#fff"/></svg>