<svg xmlns="http://www.w3.org/2000/svg" viewBox="0 0 500 500"><title>nuestra plataforma</title><g id="Capa_2" data-name="Capa 2"><g id="Iconos_2" data-name="Iconos 2"><g id="fondo"><g id="fondo-2" data-name="fondo"><circle cx="250" cy="250" r="250" style="fill:#383b70"/></g><g id="fondo-3" data-name="fondo"><circle cx="274" cy="281.35" r="203" style="fill:#fff"/></g></g><g id="nuestra_plataforma" data-name="nuestra plataforma"><path d="M419.32,311.39c-1.45,12.41-4.45,22.37-8.58,30.31-5.5,10.58-14.9,14.84-23.29,19.31a54.34,54.34,0,0,1-7.55,3.28c-15.27,5.3-32.37,3.89-45.81,1.09a181,181,0,0,0-28.59-3.61c-2.75-.13-5.49-.19-8.24-.19-4.23,0-80.52,1.46-99.09-36.14-4.58-9.28-7.73-20.61-8.86-34.42-3.19-39,14.37-64.69,37-81.45,42.85-31.71,101.59-30.38,143.81,2.16C398.26,233.41,424.59,266.22,419.32,311.39Z" style="fill:#3f3d56"/><path d="M364.31,276.26c-11.89-8.89-30.51-17.29-51.08-23.06-18.74-5.25-37-7.79-51.46-7.14l-.07-1.68c14.62-.66,33.08,1.9,52,7.2,20.77,5.82,39.59,14.32,51.64,23.33Z" style="fill:#f2f2f2"/><path d="M363.08,283.1A55.93,55.93,0,0,1,358.23,306c-.27.6-.54,1.19-.83,1.79A56.19,56.19,0,0,1,250.72,283.1c0-1.3,0-2.59.13-3.87,0-.65.1-1.3.16-1.94a56.19,56.19,0,0,1,112.07,5.81Z" style="fill:#fc0254"/><path d="M358.23,306c-.27.6-.54,1.19-.83,1.79-1.65.17-3.37.3-5.19.38-1.5.07-3,.11-4.63.11-13.79,0-30.39-2.55-47.36-7.3-18.9-5.3-36-12.71-48.15-20.87l-1.22-.84c0-.65.1-1.3.16-1.94.65.46,1.31.92,2,1.38,12,8.06,28.93,15.39,47.67,20.65,16.81,4.71,33.26,7.23,46.9,7.23,1.56,0,3.08,0,4.56-.1C354.29,306.36,356.32,306.19,358.23,306Z" style="opacity:0.10000000149011612;isolation:isolate"/><path d="M347.58,306.89c-13.79,0-30.39-2.55-47.36-7.3-18.9-5.3-36-12.71-48.15-20.87-12.4-8.33-18.22-16.54-16.38-23.11s11.08-10.56,26-11.23l.07,1.68c-7,.31-12.65,1.35-16.88,3.08s-6.78,4.06-7.58,6.92.16,6.19,2.87,9.86,7,7.51,12.83,11.4c12,8.07,28.93,15.4,47.67,20.65,16.81,4.71,33.26,7.24,46.9,7.24,1.55,0,3.07,0,4.56-.1,7-.31,12.65-1.35,16.88-3.08s6.77-4.06,7.58-6.93c1.44-5.15-2.92-11.84-12.29-18.84l1-1.35a44,44,0,0,1,10.6,10.56c2.38,3.64,3.15,7,2.29,10.09-1.84,6.57-11.07,10.56-26,11.23C350.71,306.86,349.16,306.89,347.58,306.89Z" style="fill:#f2f2f2"/><circle cx="308.38" cy="216.15" r="0.64" style="fill:#f2f2f2"/><circle cx="222.98" cy="243.62" r="0.64" style="fill:#f2f2f2"/><circle cx="220.62" cy="286.97" r="0.64" style="fill:#f2f2f2"/><circle cx="351.94" cy="220.01" r="0.43" style="fill:#f2f2f2"/><circle cx="403.66" cy="280.53" r="0.43" style="fill:#f2f2f2"/><circle cx="380.05" cy="260.79" r="0.43" style="fill:#f2f2f2"/><circle cx="261.82" cy="229.67" r="0.43" style="fill:#f2f2f2"/><circle cx="378.55" cy="274.73" r="0.43" style="fill:#f2f2f2"/><circle cx="225.77" cy="317.87" r="0.43" style="fill:#f2f2f2"/><circle cx="251.3" cy="335.46" r="0.43" style="fill:#f2f2f2"/><polygon points="288.43 198.18 287.83 198.18 287.83 197.59 287.52 197.59 287.52 198.18 286.92 198.18 286.92 198.5 287.52 198.5 287.52 199.09 287.83 199.09 287.83 198.5 288.43 198.5 288.43 198.18" style="fill:#f2f2f2"/><polygon points="352.37 344.1 351.78 344.1 351.78 343.5 351.46 343.5 351.46 344.1 350.87 344.1 350.87 344.41 351.46 344.41 351.46 345.01 351.78 345.01 351.78 344.41 352.37 344.41 352.37 344.1" style="fill:#f2f2f2"/><polygon points="392.07 335.3 391.48 335.3 391.48 334.71 391.16 334.71 391.16 335.3 390.57 335.3 390.57 335.62 391.16 335.62 391.16 336.21 391.48 336.21 391.48 335.62 392.07 335.62 392.07 335.3" style="fill:#f2f2f2"/><circle cx="307.74" cy="239.11" r="4.72" style="fill:#3f3d56"/><circle cx="271.47" cy="273.66" r="4.72" style="fill:#3f3d56"/><circle cx="323.62" cy="321.08" r="4.72" style="fill:#3f3d56"/><circle cx="307.74" cy="280.96" r="4.72" style="fill:#3f3d56"/><circle cx="273.83" cy="306.92" r="4.72" style="fill:#3f3d56"/><circle cx="333.06" cy="255.64" r="4.72" style="fill:#3f3d56"/><circle cx="348.72" cy="287.61" r="4.72" style="fill:#3f3d56"/><circle cx="307.74" cy="260.36" r="6.22" style="fill:#fff"/><path d="M307.74,251.34a8.8,8.8,0,0,0-8.8,8.8c0,4.86,8.8,20.82,8.8,20.82s8.8-16,8.8-20.82A8.8,8.8,0,0,0,307.74,251.34Zm0,13.09a4.08,4.08,0,1,1,4.08-4.07,4.08,4.08,0,0,1-4.08,4.07Z" style="fill:#ff6584"/><circle cx="273.83" cy="286.97" r="6.22" style="fill:#fff"/><path d="M273.83,278a8.8,8.8,0,0,0-8.79,8.8c0,4.86,8.79,20.82,8.79,20.82s8.8-16,8.8-20.82A8.8,8.8,0,0,0,273.83,278Zm0,13.09a4.08,4.08,0,1,1,4.08-4.07,4.07,4.07,0,0,1-4.08,4.07Z" style="fill:#ff6584"/><circle cx="348.72" cy="267.65" r="6.22" style="fill:#fff"/><path d="M348.72,258.64a8.8,8.8,0,0,0-8.79,8.8c0,4.86,8.79,20.81,8.79,20.81s8.8-15.95,8.8-20.81A8.8,8.8,0,0,0,348.72,258.64Zm0,13.09a4.08,4.08,0,1,1,4.08-4.08,4.08,4.08,0,0,1-4.08,4.08Z" style="fill:#ff6584"/><circle cx="307.74" cy="218.51" r="6.22" style="fill:#fff"/><path d="M307.74,209.5a8.8,8.8,0,0,0-8.8,8.8c0,4.86,8.8,20.81,8.8,20.81s8.8-16,8.8-20.81A8.8,8.8,0,0,0,307.74,209.5Zm0,13.09a4.08,4.08,0,1,1,4.08-4.08,4.08,4.08,0,0,1-4.08,4.08Z" style="fill:#ff6584"/><circle cx="323.62" cy="301.13" r="6.22" style="fill:#fff"/><path d="M323.62,292.12a8.79,8.79,0,0,0-8.8,8.79c0,4.86,8.8,20.82,8.8,20.82s8.8-16,8.8-20.82A8.79,8.79,0,0,0,323.62,292.12Zm0,13.08a4.08,4.08,0,1,1,4.08-4.07,4.08,4.08,0,0,1-4.08,4.07Z" style="fill:#ff6584"/><circle cx="271.47" cy="253.28" r="6.22" style="fill:#fff"/><path d="M271.47,244.26a8.79,8.79,0,0,0-8.79,8.8c0,4.86,8.79,20.82,8.79,20.82s8.8-16,8.8-20.82A8.8,8.8,0,0,0,271.47,244.26Zm0,13.09a4.08,4.08,0,1,1,4.08-4.07,4.07,4.07,0,0,1-4.08,4.07Z" style="fill:#ff6584"/><circle cx="333.06" cy="235.89" r="6.22" style="fill:#fff"/><path d="M333.06,226.88a8.8,8.8,0,0,0-8.8,8.8c0,4.86,8.8,20.81,8.8,20.81s8.8-16,8.8-20.81A8.8,8.8,0,0,0,333.06,226.88Zm0,13.09a4.08,4.08,0,1,1,4.08-4.08,4.08,4.08,0,0,1-4.08,4.08Z" style="fill:#ff6584"/><path d="M214.16,402.42c0,3.05-26.48,5.52-59.16,5.52s-59.15-2.47-59.15-5.52,24.35-9.9,57-9.9S214.16,399.37,214.16,402.42Z" style="fill:#fb397a"/><rect x="135.02" y="223.17" width="23.22" height="19.22" style="fill:#2f2e41"/><polygon points="174.89 383.96 176.9 391.65 171.55 392.48 169.05 384.47 174.89 383.96" style="fill:#a0616a"/><polygon points="136.98 382.8 136.98 390.98 131.3 390.98 132.13 382.8 136.98 382.8" style="fill:#a0616a"/><path d="M170.55,391s4-1.84,6.35,0,3.5,6,3.5,6,6,7.69-1,7.35-7.35-1.17-7.35-2.34.34-2.5-.83-3-1.67-2.84-1.34-3.51A28.78,28.78,0,0,0,170.55,391Z" style="fill:#2f2e41"/><path d="M138,389.64s-5.51-3.52-6.68-.76-2.84,6.28-2.84,6.28-4.68,7.34,1.17,7.51,6.85-.67,7.35-2.17,0-2.67,1-2.67,1.5-2.17,1-3.18A28.85,28.85,0,0,1,138,389.64Z" style="fill:#2f2e41"/><path d="M153.85,234.48s-1.34,7.52,2.17,8,7,2,7.18,3-13.7,11.69-13.7,11.69L141,254.53s-8.52-2.17-8.19-3.85,1-4,1-4,9.68-2,9.85-5a57.48,57.48,0,0,1,1.34-7.85Z" style="fill:#a0616a"/><path d="M153.85,234.48s-1.34,7.52,2.17,8,7,2,7.18,3-13.7,11.69-13.7,11.69L141,254.53s-8.52-2.17-8.19-3.85,1-4,1-4,9.68-2,9.85-5a57.48,57.48,0,0,1,1.34-7.85Z" style="opacity:0.10000000149011612;isolation:isolate"/><path d="M131.8,281.58s6,5.78,18.06,5.23,11,3.63,11,3.63l-.5,6.68s6.35,27.89,5.51,42.59c0,0,.34,7,2.67,10.85s8.69,32.24,7.69,34.41-8.35,1.33-8.35,1.33-6.85-25.88-10.19-31.73-3.68-9.19-3.68-9.19l-11.35-33.07-1.51,14.37s.17,11.36.17,12.36-.17,9-.83,10.69-3.18,28.39-1.67,32.9-7.85,2-7.85,2-2.84-29.06-2-34.74S127.63,334,127.63,334,121.28,303,124.79,298c0,0,2.33-17,3.5-16.87Z" style="fill:#2f2e41"/><circle cx="149.09" cy="228.89" r="9.19" style="fill:#a0616a"/><path d="M125.62,286.93c.17.51,2.16-.54,4.08-1.7s3.6-2.31,3.6-2.31c2,6.35,14.7,3.84,14.7,3.84l.09.13a23.38,23.38,0,0,0,4.42,4.55c2.51,1.83,8.35-2.51,8.35-2.51s9.09-21.77,10.25-33.3c.26-2.53.13-4.58-.56-5.78-3.84-6.68-9.25-5.84-9.25-5.84-.89,2.35-8.12,5.84-8.12,5.84L146,251.19c-7.18,1.33-9.36-6.18-9.36-6.18-2-.34-5.67,3.34-5.67,3.34-3.51,1-5.35,12.69-5.35,12.69s.35.43.89,1.13l1.09,1.38.43.56a51.34,51.34,0,0,1,4.77,6.95c1,2.34-1,5.85-3.34,5.68S125.29,285.93,125.62,286.93Z" style="fill:#fc0254"/><path d="M149.17,296s-7.85,9.85-11.36,6.34S148,290.6,148,290.6Z" style="fill:#a0616a"/><path d="M129.3,292.94s6.84,10.36,3,10.69-8.52-6.85-8.52-6.85Z" style="fill:#a0616a"/><path d="M128.34,243.4a39.47,39.47,0,0,0,2.63-5.83c.68-2.47.42-5.08.34-7.64a23.39,23.39,0,0,1,.57-6.73,11.51,11.51,0,0,1,3.33-5.8c4.3-3.84,12.17-4.12,17.43-2.52,2.07.63,4.28,1.83,4.79,3.93.08.32.11.65.2,1,.43,1.57,2,2.56,2.61,4.08.75,2-.41,4.1-.56,6.19-.17,2.45,1,4.76,2.21,6.9a8,8,0,0,1,1.37,4.1,5.17,5.17,0,0,1-.71,2.25,8.58,8.58,0,0,1-7.22,4.14,4.48,4.48,0,0,1-2.71-.64,4.19,4.19,0,0,1-1.39-4.19,20.52,20.52,0,0,1,1.66-4.35c.18-.44.35-.89.51-1.34a9.18,9.18,0,1,0-6.06,1,12.49,12.49,0,0,1-.6,6.92,26,26,0,0,1-2.91,5.06A6.82,6.82,0,0,1,142,252a6.34,6.34,0,0,1-1.58.68,16.5,16.5,0,0,1-7.17,1,6.89,6.89,0,0,1-5.63-4.09C126.88,247.59,127.46,245.34,128.34,243.4Z" style="fill:#2f2e41"/><ellipse cx="148.42" cy="223.21" rx="10.02" ry="5.68" style="fill:#2f2e41"/><path d="M148.09,286.89a23.38,23.38,0,0,0,4.42,4.55c2.51,1.83,8.35-2.51,8.35-2.51s9.09-21.77,10.25-33.3a51.16,51.16,0,0,0-2.23-5.61l1.92,7.76s-8.6,6.93-10.44,9.77-.17,12.36,0,13.87-3.34,2-5,1.83-2,1.34-3.51,1.34C151.12,284.59,149.53,285.72,148.09,286.89Z" style="opacity:0.10000000149011612;isolation:isolate"/><path d="M168,250h2.51s6.18,12.52,5.51,26.72-7.52,19.87-15.36,21.71-11.36,3-12.36,1.84-1.51-10.86-1.51-10.86,5.18-4.84,6.68-4.84,1.84-1.5,3.51-1.34,5.18-.33,5-1.83-1.84-11,0-13.87S168,250,168,250Z" style="fill:#fc0254"/><path d="M126.51,262.17l1.09,1.38-1-2Z" style="opacity:0.10000000149011612;isolation:isolate"/><path d="M125.62,286.93c.17.51,2.16-.54,4.08-1.7,0-.1,0-.2-.07-.31-.5-2,3-6.84,3-6.84l2.33-6.35-.5-8.52-6.44.9a51.34,51.34,0,0,1,4.77,6.95c1,2.34-1,5.85-3.34,5.68S125.29,285.93,125.62,286.93Z" style="opacity:0.10000000149011612;isolation:isolate"/><path d="M129,257.7,125.62,261s-2.34,13.53-2.34,14.36-4,6.18-3,9.86,1.67,8.52.83,9.52-2,3.84,0,5.18,4.51-7.69,10.52-5.35c0,0-3.67-5.84-3.5-6.35a5.63,5.63,0,0,0,.5-3.84c-.5-2,3-6.85,3-6.85l2.34-6.34-.5-8.52Z" style="fill:#fc0254"/></g></g></g></svg>