<svg xmlns="http://www.w3.org/2000/svg" viewBox="0 0 500 500"><title>tu negocio</title><g id="Capa_2" data-name="Capa 2"><g id="Iconos_2" data-name="Iconos 2"><g id="fondo"><g id="fondo-2" data-name="fondo"><circle cx="250" cy="250" r="250" style="fill:#383b70"/></g><g id="fondo-3" data-name="fondo"><circle cx="274" cy="281.35" r="203" style="fill:#fff"/></g></g><g id="tu_negocio" data-name="tu negocio"><ellipse cx="268.72" cy="377.8" rx="143.28" ry="11.19" style="fill:#3f3d56"/><polygon points="390.43 357.01 391.77 366.86 382.37 367.75 383.71 355.66 390.43 357.01" style="fill:#a0616a"/><path d="M346.11,221.82s.9,12.09.9,12.54-6.27,31.33-6.27,31.33-8.95,17,0,16.56S347,266.14,347,266.14l9.4-26-4-18.36Z" style="fill:#a0616a"/><polygon points="360.88 357.01 359.54 366.86 368.94 367.75 367.6 355.66 360.88 357.01" style="fill:#a0616a"/><path d="M350.59,264.8l-2.24,3.13s-1.34,13.43,0,17.9,4,25.07,4,26.41.45,2.24,0,2.69-1.79.45-.9,1.34.9,3.58.9,3.58v2.24l5.82,33.13s-3.58,4-.9,4,12.54,0,12.09-4.48l-.9-.45s-1.34-29.54-.89-30.88a11.37,11.37,0,0,0,0-4s-.9-1.35,0-1.79.89-4,.89-4l4-27.31s3.58,18.35,5.82,20.15,1.79,6.26,1.79,6.26l1.79,39.39s-1.79,4.48,0,5.37,9.4,4,9.85-.44,2.69-43.42,2.69-45.21-.45-2.69,0-4-.45-1.34,0-1.34-.9-1.35-.9-2.24V282.25a33,33,0,0,1,.9-5.37c.44-.89-.45-1.79,0-3.13s-.9-5.82-.9-5.82l-20.14-5.37Z" style="fill:#2f2e41"/><path d="M366.26,365.06s2.23-2.23-.9-2.23a14.48,14.48,0,0,0-5.82,1.34l-2.24,8.06s-9.17,7.38,1.12,6.49,8.73-.23,8.73-.23,3.14-.89,3.58-1.79-.89-13.87-.89-13.87S368.49,366.41,366.26,365.06Z" style="fill:#2f2e41"/><path d="M385.5,365.06s-2.23-2.23.9-2.23a14.48,14.48,0,0,1,5.82,1.34l2.24,8.06s9.17,7.38-1.12,6.49-10.07-.23-10.07-.23-3.14-.89-3.58-1.79,2.23-13.87,2.23-13.87S383.27,366.41,385.5,365.06Z" style="fill:#2f2e41"/><circle cx="356.41" cy="174.82" r="11.64" style="fill:#a0616a"/><path d="M352.38,183.33s1.79,8.95,1.79,10.29,7.61,5.37,7.61,5.37l8.51-10.74s-5.38-7.61-5.38-9.4Z" style="fill:#a0616a"/><path d="M359.09,195s-3.9-1-5.08-2.76c0,0-12.37,12.16-12.37,14.39l9.84,17.46s0,6.27.9,6.72,0,0,0,1.79-2.69,13.43-1.79,15.22,1.79.44.89,3.13-3.13,17-3.13,17,8.06-2.69,19.7,1.79,25.51-1.79,25.51-1.79-3.58-8.06-2.68-10.74-2.24-7.61-2.24-7.61l-2.24-41.19s3.13-18.35.9-19.24l-4.48-1.79-14.34-1.77S364.91,194.52,359.09,195Z" style="fill:#d0cde1"/><path d="M346.11,203.47l-4.47,3.13s-2.24,6.72,0,9.85a22.92,22.92,0,0,1,3.13,7.61l9-.89Z" style="fill:#d0cde1"/><path d="M347.52,162.52l-2-.81s4.23-4.64,10.1-4.24L354,155.65s4-1.61,7.7,2.63a35.63,35.63,0,0,1,5.56,7.81h2.16l-.9,2,3.16,2-3.25-.36a11,11,0,0,1-.3,5.15l.09,1.57s-3.76-5.82-3.76-6.62v2s-2-1.82-2-3l-1.1,1.41-.55-2.22L354,170.2l1.1-1.82-4.22.61,1.65-2.22s-4.77,2.62-5,4.84-2.57,5.06-2.57,5.06l-1.1-2S342.2,165.55,347.52,162.52Z" style="fill:#2f2e41"/><rect x="172.34" y="252.76" width="177.88" height="124.95" style="fill:#f2f2f2"/><rect x="187.32" y="300.44" width="44.66" height="77.97" style="fill:#3f3d56"/><rect x="195.58" y="305.12" width="12.03" height="11.22" style="fill:#f2f2f2"/><rect x="211.69" y="305.12" width="12.03" height="11.22" style="fill:#f2f2f2"/><rect x="195.58" y="320.41" width="12.03" height="11.62" style="fill:#f2f2f2"/><rect x="211.69" y="320.41" width="12.03" height="11.62" style="fill:#f2f2f2"/><circle cx="226.3" cy="344.67" r="2.84" style="fill:#fc0254"/><rect x="246.95" y="293.04" width="88.29" height="74.09" style="fill:#3f3d56"/><polygon points="368.81 276.29 153.75 276.29 168.09 246.31 171.3 239.6 175.5 230.82 178.71 224.11 182.43 216.33 351.87 216.33 354.06 224.11 355.96 230.82 358.44 239.6 360.34 246.31 368.81 276.29" style="fill:#3f3d56"/><rect x="250.05" y="323.76" width="3.1" height="19.1" style="fill:#fc0254"/><rect x="250.05" y="326.6" width="3.1" height="2.32" style="fill:#f2f2f2"/><rect x="250.05" y="337.7" width="3.1" height="2.32" style="fill:#f2f2f2"/><rect x="254.7" y="323.76" width="7.49" height="19.1" style="fill:#fc0254"/><rect x="254.7" y="326.6" width="7.49" height="2.32" style="fill:#f2f2f2"/><rect x="254.7" y="337.7" width="7.49" height="2.32" style="fill:#f2f2f2"/><rect x="263.99" y="323.76" width="3.1" height="19.1" style="fill:#fc0254"/><rect x="263.99" y="326.6" width="3.1" height="2.32" style="fill:#f2f2f2"/><rect x="263.99" y="337.7" width="3.1" height="2.32" style="fill:#f2f2f2"/><rect x="268.64" y="323.76" width="3.1" height="19.1" style="fill:#fc0254"/><rect x="268.64" y="326.6" width="3.1" height="2.32" style="fill:#f2f2f2"/><rect x="268.64" y="337.7" width="3.1" height="2.32" style="fill:#f2f2f2"/><rect x="275.09" y="323.76" width="3.1" height="19.1" transform="translate(-99.79 119) rotate(-20.65)" style="fill:#fc0254"/><rect x="273.14" y="326.96" width="3.1" height="2.32" transform="translate(-98.08 117.98) rotate(-20.65)" style="fill:#f2f2f2"/><rect x="277.05" y="337.34" width="3.1" height="2.32" transform="translate(-101.49 120.03) rotate(-20.65)" style="fill:#f2f2f2"/><rect x="324.92" y="323.76" width="7.49" height="19.1" style="fill:#fc0254"/><rect x="324.92" y="326.6" width="7.49" height="2.32" style="fill:#f2f2f2"/><rect x="324.92" y="337.7" width="7.49" height="2.32" style="fill:#f2f2f2"/><rect x="320.02" y="323.76" width="3.1" height="19.1" style="fill:#fc0254"/><rect x="320.02" y="326.6" width="3.1" height="2.32" style="fill:#f2f2f2"/><rect x="320.02" y="337.7" width="3.1" height="2.32" style="fill:#f2f2f2"/><rect x="315.37" y="323.76" width="3.1" height="19.1" style="fill:#fc0254"/><rect x="315.37" y="326.6" width="3.1" height="2.32" style="fill:#f2f2f2"/><rect x="315.37" y="337.7" width="3.1" height="2.32" style="fill:#f2f2f2"/><rect x="300.91" y="331.76" width="19.1" height="3.1" transform="translate(-110.93 506.25) rotate(-69.35)" style="fill:#fc0254"/><rect x="311.26" y="326.57" width="2.32" height="3.1" transform="translate(-104.81 504.72) rotate(-69.35)" style="fill:#f2f2f2"/><rect x="307.34" y="336.96" width="2.32" height="3.1" transform="translate(-117.06 507.78) rotate(-69.35)" style="fill:#f2f2f2"/><rect x="246.95" y="342.86" width="88.29" height="1.81" style="fill:#f2f2f2"/><rect x="285.42" y="323.76" width="16.26" height="19.1" style="fill:#fc0254"/><rect x="289.42" y="327.89" width="8.26" height="3.61" style="fill:#f2f2f2"/><rect x="290.33" y="293.04" width="1.55" height="16.52" style="fill:#f2f2f2"/><circle cx="291.1" cy="309.56" r="2.58" style="fill:#f2f2f2"/><polygon points="355.96 230.82 175.5 230.82 178.71 224.11 354.06 224.11 355.96 230.82" style="fill:#fc0254"/><polygon points="360.34 246.31 168.09 246.31 171.3 239.6 358.44 239.6 360.34 246.31" style="fill:#fc0254"/><path d="M379.24,207.5a34.25,34.25,0,0,0-2.05,13.26,7,7,0,0,0,1.15,3.3h0l-31.75,15.08s-14.35,1.48-10.77,7.75,16.56-3.13,16.56-3.13,34-4.93,36.71-9.85,4.47-25.52,4.47-25.52Z" style="fill:#a0616a"/><path d="M380.58,189.15h6.72s4.92.89,6.26,9.84,2.69,11.19,1.34,11.19-17.45-.44-17.45-.89S380.58,189.15,380.58,189.15Z" style="fill:#d0cde1"/><circle cx="156.44" cy="288.43" r="34.44" style="fill:#fc0254"/><circle cx="156.44" cy="288.43" r="29.62" style="opacity:0.10000000149011612;isolation:isolate"/><path d="M155,305.9v-4.31a10,10,0,0,1-5.75-1.88l.91-2.86a9.1,9.1,0,0,0,5.41,1.84,4.15,4.15,0,0,0,4.47-4.18c0-2.35-1.47-3.8-4.25-5.08-3.83-1.71-6.2-3.67-6.2-7.39a6.71,6.71,0,0,1,5.68-6.87v-4.31h2.33V275a9.12,9.12,0,0,1,4.88,1.49l-.94,2.82a8.32,8.32,0,0,0-4.73-1.45c-2.9,0-4,2-4,3.67,0,2.22,1.39,3.33,4.66,4.87,3.87,1.79,5.83,4,5.83,7.81a7.14,7.14,0,0,1-5.94,7.25v4.44Z" style="fill:#f2f2f2"/></g></g></g></svg>